PathFileType	4	(X/Y/Z)	15_coords_data.trc
DataRate	CameraRate	NumFrames	NumMarkers	Units	OrigDataRate	OrigDataStartFrame	OrigNumFrames
30.0	30.0	7	21	m	30.0	57	75
Frame#	Time	THUMB_TIP	THUMB_IP	THUMB_MCP	THUMB_CMC	INDEX_TIP	INDEX_DIP	INDEX_PIP	INDEX_MCP	MIDDLE_TIP	MIDDLE_DIP	MIDDLE_PIP	MIDDLE_MCP	RING_TIP	RING_DIP	RING_PIP	RING_MCP	PINKY_TIP	PINKY_DIP	PINKY_PIP	PINKY_MCP	WRIST
X1	Y1	Z1	X2	Y2	Z2	X3	Y3	Z3	X4	Y4	Z4	X5	Y5	Z5	X6	Y6	Z6	X7	Y7	Z7	X8	Y8	Z8	X9	Y9	Z9	X10	Y10	Z10	X11	Y11	Z11	X12	Y12	Z12	X13	Y13	Z13	X14	Y14	Z14	X15	Y15	Z15	X16	Y16	Z16	X17	Y17	Z17	X18	Y18	Z18	X19	Y19	Z19	X20	Y20	Z20	X21	Y21	Z21
56	1.8666666666666667	0.005994709968566894	-0.052183799743652344	0.939655029296875	-0.003329190015792846	-0.03421630096435547	0.9564539794921875	-0.018924200057983398	-0.020042499542236327	0.9767260131835938	-0.023325700759887696	0.009825690269470215	0.9932659912109375	0.017979900360107423	-0.0010994100570678711	0.8664149780273438	0.0017521500587463382	0.00101622998714447	0.8803870239257813	-0.012228899955749512	0.003059250116348266	0.89839697265625	-0.020859800338745117	0.00617903995513916	0.934405029296875	0.016733200073242187	0.04196780014038086	0.8492410278320313	0.004561389923095703	0.039102901458740236	0.8702880249023438	-0.008660799980163574	0.035301498413085934	0.8947869873046875	-0.019106300354003906	0.029410100936889647	0.932010009765625	0.026066200256347656	0.06069380187988281	0.8683729858398438	0.013181699752807616	0.0586973991394043	0.88710498046875	-0.00031283101439476003	0.055801700592041016	0.9083679809570312	-0.011276300430297852	0.047737701416015625	0.9391309814453125	0.036623199462890624	0.08999859619140625	0.914041015625	0.024028799057006837	0.08220349884033203	0.925822998046875	0.012603300094604492	0.07444650268554688	0.9364990234375	-0.002897739887237549	0.061294200897216794	0.9525609741210938	-0.04187070083618164	0.03713330078125	1.0071400146484375
57	1.9	0.007654260158538819	-0.051907699584960935	0.9400989990234375	-0.001923509955406189	-0.03405410003662109	0.9570499877929688	-0.017719900131225586	-0.019959600448608398	0.9771680297851563	-0.02236199951171875	0.009850560188293457	0.993625	0.01943899917602539	-0.0009172229766845701	0.866906982421875	0.0031982600688934323	0.001148130059242248	0.8809429931640625	-0.010883700370788575	0.003133630037307739	0.8988900146484375	-0.019509700775146483	0.006256050109863282	0.934676025390625	0.018126100540161134	0.04222850036621094	0.8500330200195313	0.00602249002456665	0.039293201446533206	0.870864013671875	-0.007340109825134277	0.03543259811401367	0.89527001953125	-0.01793659973144531	0.029504999160766602	0.932489013671875	0.027466899871826173	0.06088050079345703	0.8689149780273437	0.014506600379943847	0.05885350036621094	0.8877620239257813	0.0009122959971427911	0.055901798248291015	0.9089089965820313	-0.010035400390625	0.047752399444580075	0.9394229736328125	0.03783649826049805	0.09026730346679687	0.9148369750976563	0.025221099853515627	0.08241249847412109	0.9266099853515625	0.013728300094604491	0.07465519714355469	0.9371300048828125	-0.0017369099855422969	0.06133879852294922	0.9531959838867188	-0.04087459945678711	0.03714369964599609	1.00752001953125
58	1.9333333333333333	0.009730779647827148	-0.05153110122680664	0.9406699829101562	-0.000330927014350891	-0.03382009887695313	0.9575609741210938	-0.01633880043029785	-0.01989080047607422	0.9776619873046875	-0.021167999267578126	0.009897109985351562	0.9941079711914063	0.021752199172973632	-0.0007464240193367001	0.867822021484375	0.005331850051879883	0.00126593005657196	0.8815850219726562	-0.008893320083618164	0.003249399900436401	0.8994420166015625	-0.01788050079345703	0.006394509792327881	0.935114990234375	0.0207992000579834	0.04225640106201172	0.8509920043945313	0.00842671012878418	0.0393489990234375	0.8716699829101563	-0.005269110202789307	0.03549069976806641	0.8958809814453125	-0.016339099884033204	0.02964139938354492	0.9329959716796875	0.02945089912414551	0.06095849990844727	0.869676025390625	0.016370000839233397	0.058927398681640625	0.8884219970703126	0.0026529700756072997	0.056007400512695316	0.9094329833984375	-0.008525830268859863	0.047883399963378905	0.9400230102539062	0.039332099914550785	0.09048989868164062	0.9154810180664062	0.02666889953613281	0.08256330108642577	0.9272979736328125	0.01523610019683838	0.07481400299072266	0.9376740112304688	-0.00019403800368309002	0.0614896011352539	0.95360400390625	-0.0397666015625	0.03719440078735352	1.007780029296875
59	1.9666666666666666	0.012414799690246583	-0.05098960113525391	0.9417650146484375	0.0016378500461578368	-0.0335984001159668	0.9582349853515625	-0.014845199584960937	-0.019815099716186522	0.9783040161132812	-0.019795799255371095	0.009872719764709473	0.9945910034179688	0.024156600952148437	-0.0007026739716529841	0.8687509765625	0.007669750213623047	0.001293419957160949	0.8823150024414063	-0.006837110042572022	0.003225490093231201	0.899989990234375	-0.016255599975585937	0.006411660194396973	0.9357550048828125	0.02352009963989258	0.04226259994506836	0.8519459838867187	0.010781999588012695	0.03938040161132812	0.8723679809570313	-0.0032142200469970697	0.03549290084838867	0.8963280029296875	-0.014770000457763673	0.02959510040283203	0.9333389892578124	0.031343099594116214	0.061000598907470706	0.8703820190429687	0.01814459991455078	0.05895259857177734	0.8890009765625	0.004237939834594726	0.05597460174560547	0.9100089721679687	-0.007186049938201904	0.04786109924316406	0.940416015625	0.04057979965209961	0.09066320037841796	0.9161069946289062	0.02789489936828613	0.08275389862060546	0.9278189697265625	0.01646339988708496	0.07487310028076172	0.9381599731445313	0.000993544995784759	0.061495800018310544	0.9541790161132813	-0.0387224006652832	0.03713059997558594	1.0081099853515625
60	2.0	0.01401550006866455	-0.05074520111083984	0.9424869995117188	0.002878910064697265	-0.03348379898071289	0.9589990234375	-0.01379259967803955	-0.019820499420166015	0.9786699829101563	-0.018825899124145506	0.009920880317687989	0.9948740234375	0.025572500228881835	-0.001027459979057312	0.869301025390625	0.009065850257873535	0.001058189988136291	0.8828690185546875	-0.005534359931945801	0.0030684399604797357	0.9004190063476563	-0.015036000251770019	0.006328629970550537	0.9360789794921875	0.024998100280761718	0.04190019989013672	0.8524390258789063	0.012206600189208985	0.0390635986328125	0.872864013671875	-0.0018578699827194209	0.03524300003051758	0.896822021484375	-0.013609100341796875	0.029483400344848632	0.9337659912109375	0.032989498138427734	0.06060129928588867	0.8709119873046876	0.019648099899291994	0.05868989944458008	0.8895280151367188	0.005666709899902343	0.055760799407958986	0.9104619750976563	-0.006017600059509277	0.04783000183105469	0.940739013671875	0.041831298828125	0.09051750183105468	0.9164990234375	0.029161100387573243	0.08254669952392578	0.9282550048828125	0.017638999938964842	0.07468920135498047	0.9385759887695313	0.0021024000644683837	0.06147969818115234	0.9543040161132812	-0.03780500030517578	0.037262401580810546	1.0083599853515626
61	2.033333333333333	0.015269100189208984	-0.050330101013183595	0.9424509887695313	0.003864490032196045	-0.033263099670410155	0.959114990234375	-0.012890199661254882	-0.019770500183105468	0.9789039916992187	-0.01801219940185547	0.009951149940490723	0.9950579833984375	0.02657229995727539	-0.0006026449799537651	0.8695750122070313	0.009993590354919434	0.001396909952163696	0.883	-0.0046566400527954105	0.0033247799873352053	0.9005479736328125	-0.014307700157165527	0.006516059875488281	0.936280029296875	0.025902599334716798	0.04224259948730469	0.85281298828125	0.013024999618530273	0.039380699157714846	0.8730919799804687	-0.001113899946212768	0.03550490188598633	0.896947021484375	-0.012920499801635742	0.02967289924621582	0.9339509887695312	0.03349480056762695	0.061046600341796875	0.871135009765625	0.020193199157714843	0.05906019973754883	0.8896580200195312	0.00612663984298706	0.05605270004272461	0.9105989990234375	-0.005507810115814209	0.04802700042724609	0.940927978515625	0.042124401092529296	0.09103009796142578	0.9165570068359375	0.029485599517822265	0.08298210144042968	0.9282520141601562	0.018083099365234376	0.07509320068359375	0.938458984375	0.002633049964904785	0.06167190170288086	0.9545189819335937	-0.03710609817504883	0.03729840087890625	1.0087100219726564
62	2.066666666666667	0.016274999618530274	-0.04973300170898438	0.9425469970703125	0.00447100019454956	-0.032842098236083986	0.9592319946289063	-0.012383899688720702	-0.01953300094604492	0.9788170166015625	-0.0173439998626709	0.010007100105285644	0.99493701171875	0.02740800094604492	-0.00021601599454879703	0.8697650146484375	0.010787599563598633	0.00177701997756958	0.8830750122070312	-0.003966279983520508	0.003664629936218261	0.9005260009765625	-0.013857199668884277	0.006610990047454834	0.9362470092773437	0.02712220001220703	0.04255599975585937	0.853093017578125	0.014076299667358398	0.03972679901123047	0.873302978515625	-0.000298225998878479	0.035827301025390626	0.897135009765625	-0.012283499717712403	0.02991440010070801	0.9339310302734375	0.03444319915771484	0.061314601898193356	0.8713300170898437	0.021024499893188477	0.05929550170898437	0.8898930053710937	0.006870150089263916	0.056316200256347655	0.9107230224609375	-0.004880980014801025	0.048259101867675784	0.9410419921875	0.042913898468017575	0.09117410278320312	0.91677197265625	0.030295900344848633	0.08322170257568359	0.92856298828125	0.0188302001953125	0.07530490112304687	0.9389240112304688	0.003276799917221069	0.06191429901123047	0.9545709838867188	-0.036450698852539064	0.03734510040283203	1.0083800048828124
